<svg xmlns="http://www.w3.org/2000/svg" viewBox="0 0 100 100"><path fill="#b3b2c3" d="M65 14h-2H37h-1-1c-1.105 0-2 .895-2 2v5c0 1.105.895 2 2 2h0c1.105 0 2-.895 2-2v-1c0-1.105.895-2 2-2h22c1.105 0 2 .895 2 2v1c0 1.105.895 2 2 2l0 0c1.105 0 2-.895 2-2v-5C67 14.895 66.105 14 65 14L65 14zM30 23H40V28H30zM60 23H70V28H60z"/><path fill="#39c2d8" d="M82,82H18c-3.314,0-6-2.686-6-6V34c0-3.314,2.686-6,6-6h64c3.314,0,6,2.686,6,6v42 C88,79.314,85.314,82,82,82z"/><path fill="#b3b2c3" d="M22 82H32V87H22zM68 82H78V87H68z"/><path fill="#1f212b" d="M82,83H18c-3.86,0-7-3.14-7-7V34c0-3.86,3.14-7,7-7h64c3.86,0,7,3.14,7,7v42 C89,79.86,85.86,83,82,83z M18,29c-2.757,0-5,2.243-5,5v42c0,2.757,2.243,5,5,5h64c2.757,0,5-2.243,5-5V34c0-2.757-2.243-5-5-5H18z"/><path fill="#1f212b" d="M32 88H22c-.552 0-1-.448-1-1v-5c0-.552.448-1 1-1h10c.552 0 1 .448 1 1v5C33 87.552 32.552 88 32 88zM23 86h8v-3h-8V86zM78 88H68c-.552 0-1-.448-1-1v-5c0-.552.448-1 1-1h10c.552 0 1 .448 1 1v5C79 87.552 78.552 88 78 88zM69 86h8v-3h-8V86zM40 29H30c-.552 0-1-.448-1-1v-5c0-.552.448-1 1-1h10c.552 0 1 .448 1 1v5C41 28.552 40.552 29 40 29zM31 27h8v-3h-8V27zM70 29H60c-.552 0-1-.448-1-1v-5c0-.552.448-1 1-1h10c.552 0 1 .448 1 1v5C71 28.552 70.552 29 70 29zM61 27h8v-3h-8V27zM87.5 43h-7c-.276 0-.5-.224-.5-.5s.224-.5.5-.5h7c.276 0 .5.224.5.5S87.776 43 87.5 43zM65.5 43h-6c-.276 0-.5-.224-.5-.5s.224-.5.5-.5h6c.276 0 .5.224.5.5S65.776 43 65.5 43zM56.5 43h-4c-.276 0-.5-.224-.5-.5s.224-.5.5-.5h4c.276 0 .5.224.5.5S56.776 43 56.5 43zM49.5 43h-15c-.276 0-.5-.224-.5-.5s.224-.5.5-.5h15c.276 0 .5.224.5.5S49.776 43 49.5 43zM19.5 43h-7c-.276 0-.5-.224-.5-.5s.224-.5.5-.5h7c.276 0 .5.224.5.5S19.776 43 19.5 43z"/><path fill="#fefdef" d="M49.5 50A12.5 12.5 0 1 0 49.5 75A12.5 12.5 0 1 0 49.5 50Z"/><path fill="#1f212b" d="M49.5,76C42.056,76,36,69.944,36,62.5S42.056,49,49.5,49S63,55.056,63,62.5S56.944,76,49.5,76z M49.5,50C42.607,50,37,55.607,37,62.5S42.607,75,49.5,75S62,69.393,62,62.5S56.393,50,49.5,50z"/><path fill="#1f212b" d="M49.5 72c-1.378 0-2.5-1.122-2.5-2.5V65h-4.5c-1.378 0-2.5-1.122-2.5-2.5s1.122-2.5 2.5-2.5H47v-4.5c0-1.378 1.122-2.5 2.5-2.5s2.5 1.122 2.5 2.5V60h4.5c1.378 0 2.5 1.122 2.5 2.5S57.878 65 56.5 65H52v4.5C52 70.878 50.878 72 49.5 72zM42.5 61c-.827 0-1.5.673-1.5 1.5s.673 1.5 1.5 1.5h5c.276 0 .5.224.5.5v5c0 .827.673 1.5 1.5 1.5s1.5-.673 1.5-1.5v-5c0-.276.224-.5.5-.5h5c.827 0 1.5-.673 1.5-1.5S57.327 61 56.5 61h-5c-.276 0-.5-.224-.5-.5v-5c0-.827-.673-1.5-1.5-1.5S48 54.673 48 55.5v5c0 .276-.224.5-.5.5H42.5zM67 24h-4c-.552 0-1-.448-1-1v-4H38v4c0 .552-.448 1-1 1h-4c-.552 0-1-.448-1-1v-5c0-2.757 2.243-5 5-5h26c2.757 0 5 2.243 5 5v5C68 23.552 67.552 24 67 24zM64 22h2v-4c0-1.654-1.346-3-3-3H37c-1.654 0-3 1.346-3 3v4h2v-3c0-1.103.897-2 2-2h24c1.103 0 2 .897 2 2V22z"/><path fill="#f15b6c" d="M42.5,61c-0.827,0-1.5,0.673-1.5,1.5s0.673,1.5,1.5,1.5h5c0.276,0,0.5,0.224,0.5,0.5v5 c0,0.827,0.673,1.5,1.5,1.5s1.5-0.673,1.5-1.5v-5c0-0.276,0.224-0.5,0.5-0.5h5c0.827,0,1.5-0.673,1.5-1.5S57.327,61,56.5,61h-5 c-0.276,0-0.5-0.224-0.5-0.5v-5c0-0.827-0.673-1.5-1.5-1.5S48,54.673,48,55.5v5c0,0.276-0.224,0.5-0.5,0.5H42.5z"/><path fill="#b3b2c3" d="M30 49h-6c-.552 0-1-.448-1-1V38c0-.552.448-1 1-1h6c.552 0 1 .448 1 1v10C31 48.552 30.552 49 30 49zM76 49h-6c-.552 0-1-.448-1-1V38c0-.552.448-1 1-1h6c.552 0 1 .448 1 1v10C77 48.552 76.552 49 76 49z"/><path fill="#1f212b" d="M29.5,50h-5c-1.378,0-2.5-1.122-2.5-2.5v-9c0-1.378,1.122-2.5,2.5-2.5h5c1.378,0,2.5,1.122,2.5,2.5 v9C32,48.878,30.878,50,29.5,50z M24.5,37c-0.827,0-1.5,0.673-1.5,1.5v9c0,0.827,0.673,1.5,1.5,1.5h5c0.827,0,1.5-0.673,1.5-1.5v-9 c0-0.827-0.673-1.5-1.5-1.5H24.5z"/><path fill="#1f212b" d="M31.5 47h-9c-.276 0-.5-.224-.5-.5v-3c0-.276.224-.5.5-.5h9c.276 0 .5.224.5.5v3C32 46.776 31.776 47 31.5 47zM23 46h8v-2h-8V46zM75.5 50h-5c-1.378 0-2.5-1.122-2.5-2.5v-9c0-1.378 1.122-2.5 2.5-2.5h5c1.378 0 2.5 1.122 2.5 2.5v9C78 48.878 76.878 50 75.5 50zM70.5 37c-.827 0-1.5.673-1.5 1.5v9c0 .827.673 1.5 1.5 1.5h5c.827 0 1.5-.673 1.5-1.5v-9c0-.827-.673-1.5-1.5-1.5H70.5z"/><path fill="#1f212b" d="M77.5,47h-9c-0.276,0-0.5-0.224-0.5-0.5v-3c0-0.276,0.224-0.5,0.5-0.5h9c0.276,0,0.5,0.224,0.5,0.5 v3C78,46.776,77.776,47,77.5,47z M69,46h8v-2h-8V46z"/></svg>